# xmcd
#
# Track frame offsets:
#	150
#	13986
#	28375
#	40196
#	54960
#	72441
#	85414
#	93734
#	112803
#	127730
#	139156
#	150889
#	162712
#	175425
#	191115
#
# Disc length: 2703
#
# Revision: 1
# Processed by: cddbd v1.5.1PL0 Copyright (c) Steve Scherf et al.
# Submitted via: Media_Universe 3.0
# Normalized: r0:DSETVAR2,TDELIM( - )
#
DISCID=cf0a8d0f
DTITLE=Various Artist - Take it easy
DYEAR=2003
DGENRE=Pop
TTITLE0=Dean Martin - Muskrat ramble
TTITLE1=Mel Torme - Blue moon
TTITLE2=Nat King Cole - Nature boy
TTITLE3=Leo Mathisen - Take it easy
TTITLE4=Doris Day - Sentimental journey
TTITLE5=Billie Holiday - That old devil called love
TTITLE6=Marguerite Viby - Jeg har elsket dig
TTITLE7=Frank Sinatra - Stormy weather
TTITLE8=Duke Ellington - Never know lament
TTITLE9=Leo Mathisen - To be or not to be
TTITLE10=Glenn Iller - Little brown jug
TTITLE11=Ella Fitzgerald - A tisket, a tasket
TTITLE12=Petter Sorensen - Stardust
TTITLE13=Louis Amstrong - Stardust
TTITLE14=Kai Julian - Skrivemaskinen
EXTD=
EXTT0=
EXTT1=
EXTT2=
EXTT3=
EXTT4=
EXTT5=
EXTT6=
EXTT7=
EXTT8=
EXTT9=
EXTT10=
EXTT11=
EXTT12=
EXTT13=
EXTT14=
PLAYORDER=
